<!-- icon666.com - MILLIONS vector ICONS FREE --><svg viewBox="0 0 64 64" xmlns="http://www.w3.org/2000/svg"><g id="aviator_pilot" data-name="aviator pilot"><path d="m59 28h2a0 0 0 0 1 0 0v16a0 0 0 0 1 0 0h-2a4 4 0 0 1 -4-4v-8a4 4 0 0 1 4-4z" fill="#ffd54f" transform="matrix(-1 0 0 -1 116 72)"></path><path d="m59.27722 28.71674c.45978 6.92846-1.58887 10.4837-4.27722 12.22998v3.05328h2a4 4 0 0 0 4-4v-8a3.99142 3.99142 0 0 0 -1.72278-3.28326z" fill="#ffb300"></path><path d="m7 28h2a0 0 0 0 1 0 0v16a0 0 0 0 1 0 0h-2a4 4 0 0 1 -4-4v-8a4 4 0 0 1 4-4z" fill="#ffd54f"></path><path d="m7 28a3.966 3.966 0 0 0 -1 .14142v7.85858a3.99077 3.99077 0 0 1 -3 3.85858v.14142a4 4 0 0 0 4 4h2v-16z" fill="#ffb300"></path><path d="m37 3h-10a18 18 0 0 0 -18 18v37a3 3 0 0 0 6 0v-17a10 10 0 0 1 10-10h14a10 10 0 0 1 10 10v17a3 3 0 0 0 6 0v-37a18 18 0 0 0 -18-18z" fill="#546e7a"></path><path d="m47.83038 6.64722c-1.51953 8.7304-24.80212 5.29657-35.04992 3.34417a17.90138 17.90138 0 0 0 -3.78046 11.00861v37a3 3 0 0 0 6 0v-17a10 10 0 0 1 10-10h14a10 10 0 0 1 10 10v17a3 3 0 0 0 6 0v-37a17.95249 17.95249 0 0 0 -7.16962-14.35278z" fill="#455a64"></path><path d="m15 21h34v31h-34z" fill="#546e7a"></path><path d="m5 22h2a0 0 0 0 1 0 0v6a0 0 0 0 1 0 0h-2a2 2 0 0 1 -2-2v-2a2 2 0 0 1 2-2z" fill="#eceff1"></path><path d="m51 15h-15a5.97063 5.97063 0 0 0 -4 1.5368 5.97063 5.97063 0 0 0 -4-1.5368h-15a6 6 0 0 0 -6 6v8a6 6 0 0 0 6 6h9a11.98493 11.98493 0 0 0 10-5.372 11.98493 11.98493 0 0 0 10 5.372h9a6 6 0 0 0 6-6v-8a6 6 0 0 0 -6-6z" fill="#eceff1"></path><path d="m59 22h2a0 0 0 0 1 0 0v6a0 0 0 0 1 0 0h-2a2 2 0 0 1 -2-2v-2a2 2 0 0 1 2-2z" fill="#eceff1" transform="matrix(-1 0 0 -1 118 50)"></path><path d="m53.537 15.5686c-.968 15.04212-32.20314 14.88147-46.50764 14.01227a5.99962 5.99962 0 0 0 5.97064 5.41913h9a11.98493 11.98493 0 0 0 10-5.372 11.98493 11.98493 0 0 0 10 5.372h9a6 6 0 0 0 6-6v-8a5.99525 5.99525 0 0 0 -3.463-5.4314z" fill="#cfd8dc"></path><path d="m62 26v-2a3.00328 3.00328 0 0 0 -3-3h-1a6.98751 6.98751 0 0 0 -2.85345-5.62659 18.88 18.88 0 0 0 -18.14655-13.37341h-10a18.88 18.88 0 0 0 -18.14655 13.37341 6.98751 6.98751 0 0 0 -2.85345 5.62659h-1a3.00328 3.00328 0 0 0 -3 3v2a2.99275 2.99275 0 0 0 1.41022 2.53394 4.97579 4.97579 0 0 0 -1.41022 3.46606v8a5.00588 5.00588 0 0 0 5 5h1v13a4 4 0 0 0 8 0v-5h32v5a4 4 0 0 0 8 0v-13h1a5.00588 5.00588 0 0 0 5-5v-8a4.97564 4.97564 0 0 0 -1.41022-3.466 2.99286 2.99286 0 0 0 1.41022-2.534zm-35-22h10a16.89282 16.89282 0 0 1 15.58374 10.1875 6.97453 6.97453 0 0 0 -1.58374-.1875h-15a6.9685 6.9685 0 0 0 -4 1.2627 6.9685 6.9685 0 0 0 -4-1.2627h-15a6.97556 6.97556 0 0 0 -1.579.18628 16.88985 16.88985 0 0 1 15.579-10.18628zm-23 20a1.001 1.001 0 0 1 1-1h1v4h-1a1.001 1.001 0 0 1 -1-1zm4 19h-1a3.00328 3.00328 0 0 1 -3-3v-8a2.9949 2.9949 0 0 1 2.00922-2.8186 6.97185 6.97185 0 0 0 1.99078 4.70807zm6 15a2 2 0 0 1 -4 0v-22.68512a6.94565 6.94565 0 0 0 3 .68512h2.2049a10.94759 10.94759 0 0 0 -1.2049 5zm2-7v-10a8.93707 8.93707 0 0 1 1.5249-5h4.4751a12.96963 12.96963 0 0 0 10-4.69824 12.96963 12.96963 0 0 0 10 4.69824h4.48431a8.92535 8.92535 0 0 1 1.51569 5v10zm38 7a2 2 0 0 1 -4 0v-17a10.92062 10.92062 0 0 0 -1.222-5h2.222a6.94565 6.94565 0 0 0 3-.68512zm-3-24h-9a10.98285 10.98285 0 0 1 -9.167-4.92578 1.00056 1.00056 0 0 0 -1.666 0 10.98285 10.98285 0 0 1 -9.167 4.92578h-9a5.00588 5.00588 0 0 1 -5-5v-8a5.00588 5.00588 0 0 1 5-5h15a4.98416 4.98416 0 0 1 3.332 1.28125.99844.99844 0 0 0 1.33594 0 4.98416 4.98416 0 0 1 3.33206-1.28125h15a5.00588 5.00588 0 0 1 5 5v8a5.00588 5.00588 0 0 1 -5 5zm9 6a3.00328 3.00328 0 0 1 -3 3h-1v-9.11053a6.97185 6.97185 0 0 0 1.99078-4.70807 2.99476 2.99476 0 0 1 2.00922 2.8186zm0-14a1.001 1.001 0 0 1 -1 1h-1v-4h1a1.001 1.001 0 0 1 1 1z" fill="#080633"></path><path d="m36 19h9a8 8 0 0 1 8 8v2a2 2 0 0 1 -2 2h-15a2 2 0 0 1 -2-2v-8a2 2 0 0 1 2-2z" fill="#90caf9" transform="matrix(-1 0 0 -1 87 50)"></path><path d="m13 19h15a2 2 0 0 1 2 2v2a8 8 0 0 1 -8 8h-9a2 2 0 0 1 -2-2v-8a2 2 0 0 1 2-2z" fill="#90caf9"></path><path d="m51 19h-.99493c-.45887 9.8786-9.31012 9.46844-14.77234 8.25305a7.98666 7.98666 0 0 0 6.76727 3.74695h9a2 2 0 0 0 2-2v-8a2 2 0 0 0 -2-2z" fill="#42a5f5"></path><path d="m28 19h-1.65112c.95434 8.85382-8.70044 9.05835-15.34888 8.17688v1.82312a2 2 0 0 0 2 2h9a8 8 0 0 0 8-8v-2a2 2 0 0 0 -2-2z" fill="#42a5f5"></path><path d="m22 32h-9a3.00328 3.00328 0 0 1 -3-3v-8a3.00328 3.00328 0 0 1 3-3h15a3.00328 3.00328 0 0 1 3 3v2a9.01016 9.01016 0 0 1 -9 9zm-9-12a1.001 1.001 0 0 0 -1 1v8a1.001 1.001 0 0 0 1 1h9a7.00818 7.00818 0 0 0 7-7v-2a1.001 1.001 0 0 0 -1-1z" fill="#080633"></path><path d="m51 32h-9a9.01016 9.01016 0 0 1 -9-9v-2a3.00328 3.00328 0 0 1 3-3h15a3.00328 3.00328 0 0 1 3 3v8a3.00328 3.00328 0 0 1 -3 3zm-15-12a1.001 1.001 0 0 0 -1 1v2a7.00818 7.00818 0 0 0 7 7h9a1.001 1.001 0 0 0 1-1v-8a1.001 1.001 0 0 0 -1-1z" fill="#080633"></path><g fill="#fff"><path d="m39.35645 27a.99566.99566 0 0 1 -.66114-.25 5.00467 5.00467 0 0 1 -1.69531-3.75.99974.99974 0 0 1 1-1h3a1 1 0 0 1 0 2h-1.82764a3.01317 3.01317 0 0 0 .84619 1.25 1.00021 1.00021 0 0 1 -.6621 1.75z"></path><path d="m21.00049 9.35156a1.00023 1.00023 0 0 1 -.43018-1.90332 14.84542 14.84542 0 0 1 6.42969-1.44824 1 1 0 0 1 0 2 12.85027 12.85027 0 0 0 -5.57031 1.25488 1.0044 1.0044 0 0 1 -.4292.09668z"></path><path d="m17.21143 12a.99951.99951 0 0 1 -.69873-1.71484c.27148-.26563.55273-.52246.84423-.76661a.99986.99986 0 1 1 1.28614 1.53125q-.37866.31935-.73291.665a.99527.99527 0 0 1 -.69873.2852z"></path><path d="m15 27a.99974.99974 0 0 1 -1-1v-3a.99974.99974 0 0 1 1-1h3a1 1 0 0 1 0 2h-2v2a.99974.99974 0 0 1 -1 1z"></path><circle cx="22" cy="23" r="1"></circle><circle cx="45" cy="23" r="1"></circle></g></g></svg>