<?xml version="1.0" encoding="UTF-8" standalone="no"?>
<!-- Created with Inkscape (http://www.inkscape.org/) -->

<svg
   xmlns:dc="http://purl.org/dc/elements/1.1/"
   xmlns:cc="http://creativecommons.org/ns#"
   xmlns:rdf="http://www.w3.org/1999/02/22-rdf-syntax-ns#"
   xmlns:svg="http://www.w3.org/2000/svg"
   xmlns="http://www.w3.org/2000/svg"
   xmlns:sodipodi="http://sodipodi.sourceforge.net/DTD/sodipodi-0.dtd"
   xmlns:inkscape="http://www.inkscape.org/namespaces/inkscape"
   width="24.613651mm"
   height="13.364116mm"
   viewBox="0 0 24.613654 13.36412"
   version="1.1"
   id="svg2044"
   inkscape:version="0.92.5 (2060ec1f9f, 2020-04-08)"
   sodipodi:docname="land.svg">
  <defs
     id="defs2038" />
  <sodipodi:namedview
     id="base"
     pagecolor="#ffffff"
     bordercolor="#666666"
     borderopacity="1.0"
     inkscape:pageopacity="0.0"
     inkscape:pageshadow="2"
     inkscape:zoom="0.35"
     inkscape:cx="-373.29339"
     inkscape:cy="-232.29213"
     inkscape:document-units="mm"
     inkscape:current-layer="layer1"
     showgrid="false"
     fit-margin-top="1"
     fit-margin-right="1"
     fit-margin-bottom="1"
     fit-margin-left="1"
     inkscape:window-width="1848"
     inkscape:window-height="1016"
     inkscape:window-x="72"
     inkscape:window-y="27"
     inkscape:window-maximized="1" />
  <metadata
     id="metadata2041">
    <rdf:RDF>
      <cc:Work
         rdf:about="">
        <dc:format>image/svg+xml</dc:format>
        <dc:type
           rdf:resource="http://purl.org/dc/dcmitype/StillImage" />
        <dc:title></dc:title>
      </cc:Work>
    </rdf:RDF>
  </metadata>
  <g
     inkscape:label="Capa 1"
     inkscape:groupmode="layer"
     id="layer1"
     transform="translate(-19.025274,-64.717154)">
    <g
       transform="matrix(0.35277777,0,0,-0.35277777,-15.746742,115.15481)"
       id="g1801">
      <path
         d="m 163.184,130.153 -22.552,-8.208 c 1.486,1.984 2.831,4.079 3.986,6.29 0.208,0.397 0.148,0.885 -0.147,1.221 -0.293,0.338 -0.77,0.461 -1.191,0.305 l -8.075,-2.943 c -0.26,-0.096 -0.498,-0.334 -0.623,-0.581 -0.297,-0.592 -4.098,-6 -6.014,-8.459 l -0.243,-0.312 -5.858,-2.135 c -2.207,-0.801 -4.499,-0.91 -6.639,-0.44 l 6.273,4.861 c 0.423,0.328 0.547,0.915 0.29,1.383 -0.256,0.471 -0.815,0.686 -1.319,0.507 l -8.1,-2.874 c -0.285,-0.103 -0.514,-0.319 -0.636,-0.594 l -0.654,-1.505 c -1.748,1.175 -3.206,2.81 -4.151,4.819 l 6.597,2.402 0.162,0.057 c 0.004,10e-4 0.006,0.003 0.009,0.004 l 37.157,13.526 c 0.828,0.269 2.708,0.735 4.564,0.253 l -8.251,-3.006 c -0.912,-0.455 -1.59,-1.233 -1.914,-2.193 -0.305,-0.92 -0.249,-1.885 0.168,-2.718 0.605,-1.209 1.872,-1.944 3.281,-1.944 0.339,0 0.689,0.042 1.04,0.134 l 11.616,4.227 c 0.413,-0.243 0.894,-0.628 1.163,-1.227 0.097,-0.215 0.24,-0.532 0.061,-0.85 z m -26.693,-9.857 c -2.717,-3.025 -5.822,-5.636 -9.274,-7.797 l 3.069,3.939 c 1.363,1.751 4.981,6.769 6.033,8.468 l 4.934,1.8 c -1.391,-2.284 -2.987,-4.431 -4.762,-6.41 z m -32.269,9.857 c 0.971,-0.464 1.663,-1.187 2.493,-2.057 0.668,-0.702 1.425,-1.495 2.423,-2.21 0.476,-0.342 0.982,-0.646 1.518,-0.917 l -4.03,-1.426 z m 15.452,2.923 c 4.035,0.578 8.093,0.587 12.118,0.028 0.299,-0.041 0.596,-0.095 0.893,-0.143 l -4.568,-1.663 z m 40.882,0.96 -10.854,-3.955 c -0.69,-0.188 -1.438,0.126 -1.73,0.706 -0.153,0.307 -0.172,0.689 -0.051,1.051 0.138,0.408 0.428,0.74 0.707,0.886 l 9.848,3.586 c 0.519,-0.465 1.156,-1.102 1.846,-1.964 0.084,-0.107 0.161,-0.21 0.234,-0.31 z m 4.549,-2.13 c -0.402,0.888 -1.093,1.639 -2.008,2.189 -0.098,0.178 -0.214,0.381 -0.351,0.599 -0.01,0.017 -0.021,0.035 -0.034,0.049 h 0.002 c -0.08,0.122 -0.357,0.544 -0.689,0.961 -1.131,1.415 -2.759,2.965 -3.737,3.451 l 0.011,0.018 c -2.833,1.548 -5.929,0.896 -7.556,0.36 l -14.149,-5.15 c -1.488,0.369 -2.99,0.67 -4.504,0.88 -6.014,0.825 -12.091,0.457 -18.067,-1.116 -0.49,-0.127 -0.826,-0.577 -0.813,-1.081 0.013,-0.503 0.37,-0.932 0.866,-1.037 l 10.168,-2.141 -10.368,-3.774 c -1.312,0.322 -2.482,0.835 -3.471,1.542 -0.831,0.596 -1.486,1.28 -2.115,1.942 -1.126,1.181 -2.287,2.4 -4.31,2.958 -0.592,0.166 -1.092,0.226 -1.393,0.254 -0.359,0.008 -0.731,-0.128 -0.961,-0.422 -0.228,-0.293 -0.286,-0.684 -0.159,-1.034 l 3.482,-9.571 c 0.056,-0.156 0.153,-0.282 0.264,-0.392 1.14,-2.886 3.135,-5.196 5.591,-6.747 l -0.693,-1.596 c -0.197,-0.455 -0.062,-0.989 0.332,-1.293 0.196,-0.154 0.432,-0.231 0.668,-0.231 0.236,0 0.47,0.077 0.668,0.229 l 1.923,1.49 c 1.492,-0.523 3.072,-0.809 4.683,-0.809 1.604,0 3.235,0.273 4.826,0.852 l 2.594,0.945 -3.54,-4.545 c -0.311,-0.401 -0.307,-0.958 0.011,-1.354 0.211,-0.264 0.527,-0.407 0.848,-0.407 0.158,0 0.318,0.035 0.469,0.107 5.524,2.626 10.37,6.226 14.407,10.692 0.084,0.008 0.167,0.006 0.249,0.037 l 25.897,9.425 c 0.087,0.031 0.172,0.075 0.249,0.127 0.408,0.286 0.723,0.663 0.91,1.094 0.453,1.046 0.015,2.023 -0.2,2.499"
         style="fill:#363536;fill-opacity:1;fill-rule:nonzero;stroke:none;stroke-width:0.1"
         id="path218"
         inkscape:connector-curvature="0" />
    </g>
  </g>
</svg>
